<svg width="122" height="25" viewBox="0 0 122 25" fill="none" xmlns="http://www.w3.org/2000/svg">
<path d="M10.5991 6.37603L6.09346 8.96554C5.93083 9.05894 5.79577 9.19368 5.70197 9.35609C5.60818 9.5185 5.55897 9.70281 5.55935 9.89036V15.0486C5.55897 15.2361 5.60818 15.4205 5.70197 15.5829C5.79577 15.7453 5.93083 15.88 6.09346 15.9734L15.0715 21.1379C15.2338 21.232 15.3684 21.367 15.462 21.5295C15.5556 21.692 15.6049 21.8762 15.6049 22.0638C15.6049 22.2513 15.5556 22.4355 15.462 22.598C15.3684 22.7605 15.2338 22.8955 15.0715 22.9896L12.162 24.6522C11.8424 24.836 11.4801 24.9328 11.1114 24.9328C10.7427 24.9328 10.3805 24.836 10.0609 24.6522L1.06823 19.4815C0.742801 19.2944 0.472608 19.0245 0.285019 18.6994C0.0974296 18.3742 -0.000894095 18.0052 6.12646e-06 17.6298V7.31124C-0.000469473 6.93617 0.0978083 6.56757 0.284959 6.24252C0.472109 5.91747 0.741536 5.64742 1.06615 5.45951L10.0671 0.280495C10.3871 0.0967107 10.7497 0 11.1187 0C11.4877 0 11.8503 0.0967107 12.1703 0.280495L21.1712 5.45951C21.4957 5.64758 21.765 5.91767 21.9521 6.24268C22.1393 6.5677 22.2376 6.93621 22.2374 7.31124V11.2225C22.2377 11.597 22.1396 11.9651 21.9528 12.2897C21.766 12.6143 21.4972 12.8842 21.1733 13.0722L17.7338 15.0548C17.4141 15.2396 17.0514 15.3369 16.6822 15.3369C16.313 15.3369 15.9502 15.2396 15.6306 15.0548L12.721 13.3922C12.5588 13.2984 12.424 13.1636 12.3304 13.0013C12.2367 12.8389 12.1874 12.6548 12.1874 12.4674C12.1874 12.28 12.2367 12.0959 12.3304 11.9335C12.424 11.7712 12.5588 11.6364 12.721 11.5426L16.3476 9.46432C16.3816 9.44688 16.4102 9.42038 16.4301 9.38775C16.4501 9.35511 16.4607 9.3176 16.4607 9.27935C16.4607 9.2411 16.4501 9.2036 16.4301 9.17096C16.4102 9.13833 16.3816 9.11183 16.3476 9.09439L11.6383 6.37603C11.4797 6.28642 11.3008 6.23933 11.1187 6.23933C10.9366 6.23933 10.7576 6.28642 10.5991 6.37603Z" fill="white"/>
<path d="M116.817 4.98775C119.381 4.98775 120.915 6.20976 121.767 8.08435C121.767 8.10098 121.784 8.12176 121.794 8.1467C121.804 8.16976 121.81 8.19456 121.81 8.21968C121.81 8.2448 121.806 8.26975 121.796 8.29311C121.787 8.31646 121.773 8.33776 121.756 8.35579C121.738 8.37382 121.718 8.38822 121.694 8.39817L119.514 9.35209C119.467 9.36994 119.414 9.36964 119.367 9.35125C119.319 9.33286 119.28 9.29766 119.257 9.25233C118.841 8.27971 118.157 7.86821 117.28 7.86821C116.326 7.86821 115.913 8.22983 115.913 8.90734C115.913 10.8755 122 11.0355 122 15.6347C122 18.3863 120.073 19.9533 117.093 19.9533C114.795 19.9533 112.71 18.6627 112.045 16.5699L112.033 16.5283C112.019 16.4773 112.025 16.423 112.049 16.3763C112.074 16.3295 112.116 16.294 112.166 16.2768H112.193L114.587 15.4871C114.636 15.471 114.69 15.474 114.737 15.4956C114.785 15.5171 114.822 15.5556 114.842 15.6035C114.842 15.618 114.855 15.6305 114.859 15.643C115.041 16.0769 115.345 16.4487 115.734 16.7129C116.123 16.9771 116.581 17.1224 117.052 17.131C118.107 17.131 118.479 16.7902 118.479 16.0919C118.479 13.6603 112.186 13.6811 112.186 9.14219C112.18 6.83532 113.982 4.98775 116.817 4.98775Z" fill="white"/>
<path d="M101.419 5.19557H110.979C111.034 5.19557 111.087 5.21747 111.126 5.25644C111.165 5.29542 111.187 5.34828 111.187 5.4034V8.1467C111.187 8.20182 111.165 8.25468 111.126 8.29365C111.087 8.33263 111.034 8.35452 110.979 8.35452H108.263C108.208 8.35452 108.155 8.37642 108.116 8.41539C108.077 8.45437 108.055 8.50723 108.055 8.56235V19.5356C108.055 19.5907 108.033 19.6435 107.994 19.6825C107.955 19.7215 107.902 19.7434 107.847 19.7434H104.536C104.481 19.7434 104.428 19.7215 104.389 19.6825C104.35 19.6435 104.329 19.5907 104.329 19.5356V8.54988C104.329 8.49476 104.307 8.4419 104.268 8.40293C104.229 8.36395 104.176 8.34205 104.121 8.34205H101.419C101.364 8.34205 101.311 8.32016 101.272 8.28118C101.233 8.24221 101.211 8.18935 101.211 8.13423V5.4034C101.211 5.34828 101.233 5.29542 101.272 5.25644C101.311 5.21747 101.364 5.19557 101.419 5.19557Z" fill="white"/>
<path d="M89.3651 5.19557H91.7592C91.7938 5.1962 91.8277 5.20546 91.8579 5.22252C91.888 5.23958 91.9134 5.26389 91.9317 5.29325L96.269 12.403C96.2725 12.4081 96.2771 12.4123 96.2825 12.4152C96.288 12.4181 96.294 12.4196 96.3002 12.4196C96.3056 12.4191 96.3106 12.4168 96.3144 12.413C96.3182 12.4092 96.3205 12.4042 96.321 12.3988V5.4034C96.321 5.34828 96.3429 5.29542 96.3819 5.25644C96.4208 5.21747 96.4737 5.19557 96.5288 5.19557H99.3407C99.3958 5.19557 99.4487 5.21747 99.4876 5.25644C99.5266 5.29542 99.5485 5.34828 99.5485 5.4034V19.5356C99.5485 19.5907 99.5266 19.6435 99.4876 19.6825C99.4487 19.7215 99.3958 19.7434 99.3407 19.7434H97.1149C97.0803 19.7428 97.0464 19.7335 97.0162 19.7164C96.9861 19.6994 96.9607 19.6751 96.9424 19.6457L92.443 12.1951C92.4395 12.19 92.4349 12.1858 92.4294 12.1829C92.424 12.18 92.4179 12.1785 92.4118 12.1785C92.4063 12.1785 92.401 12.1807 92.3971 12.1846C92.3932 12.1885 92.391 12.1938 92.391 12.1993V19.5356C92.391 19.5907 92.3691 19.6435 92.3301 19.6825C92.2912 19.7215 92.2383 19.7434 92.1832 19.7434H89.3651C89.3099 19.7434 89.2571 19.7215 89.2181 19.6825C89.1791 19.6435 89.1572 19.5907 89.1572 19.5356V5.4034C89.1572 5.34828 89.1791 5.29542 89.2181 5.25644C89.2571 5.21747 89.3099 5.19557 89.3651 5.19557Z" fill="white"/>
<path d="M73.057 5.19557H76.2721C76.3272 5.19557 76.3801 5.21747 76.4191 5.25644C76.458 5.29542 76.4799 5.34828 76.4799 5.4034V19.5356C76.4799 19.5907 76.458 19.6435 76.4191 19.6825C76.3801 19.7215 76.3272 19.7434 76.2721 19.7434H73.2794C73.2243 19.7434 73.1714 19.7215 73.1325 19.6825C73.0935 19.6435 73.0716 19.5907 73.0716 19.5356V12.1993C73.0716 12.1938 73.0694 12.1885 73.0655 12.1846C73.0616 12.1807 73.0563 12.1785 73.0508 12.1785C73.0444 12.1787 73.0381 12.1802 73.0323 12.1831C73.0266 12.186 73.0215 12.1901 73.0176 12.1951L70.0373 15.8674C69.899 16.0335 69.7015 16.1393 69.4865 16.1621C69.2716 16.185 69.0562 16.1233 68.886 15.99C68.8404 15.9535 68.7986 15.9124 68.7613 15.8674L65.7852 12.1951C65.7815 12.1899 65.7765 12.1856 65.7707 12.1827C65.7649 12.1798 65.7584 12.1783 65.752 12.1785C65.7465 12.1785 65.7412 12.1807 65.7373 12.1846C65.7334 12.1885 65.7312 12.1938 65.7312 12.1993V19.5356C65.7312 19.5907 65.7093 19.6435 65.6703 19.6825C65.6313 19.7215 65.5785 19.7434 65.5234 19.7434H62.5556C62.5005 19.7434 62.4476 19.7215 62.4087 19.6825C62.3697 19.6435 62.3478 19.5907 62.3478 19.5356V5.4034C62.3478 5.34828 62.3697 5.29542 62.4087 5.25644C62.4476 5.21747 62.5005 5.19557 62.5556 5.19557H65.7728C65.8103 5.19567 65.8472 5.20597 65.8794 5.22537C65.9116 5.24476 65.938 5.27253 65.9556 5.30572L69.2414 11.6382C69.267 11.6859 69.3102 11.7217 69.3618 11.738C69.4135 11.7543 69.4694 11.7498 69.5178 11.7255C69.555 11.7059 69.5855 11.6754 69.6051 11.6382L72.8742 5.3078C72.8915 5.27422 72.9178 5.24603 72.95 5.22626C72.9822 5.20648 73.0192 5.19587 73.057 5.19557Z" fill="white"/>
<path d="M51.7486 5.19557H60.1136C60.1687 5.19557 60.2216 5.21747 60.2605 5.25644C60.2995 5.29542 60.3214 5.34828 60.3214 5.4034V8.12592C60.3214 8.18103 60.2995 8.2339 60.2605 8.27287C60.2216 8.31185 60.1687 8.33374 60.1136 8.33374H55.4895C55.4343 8.33374 55.3815 8.35564 55.3425 8.39461C55.3035 8.43359 55.2816 8.48645 55.2816 8.54157V10.73C55.2816 10.7851 55.3035 10.838 55.3425 10.8769C55.3815 10.9159 55.4343 10.9378 55.4895 10.9378H58.7419C58.7971 10.9378 58.8499 10.9597 58.8889 10.9987C58.9279 11.0376 58.9498 11.0905 58.9498 11.1456V13.4691C58.9498 13.5242 58.9279 13.5771 58.8889 13.6161C58.8499 13.655 58.7971 13.6769 58.7419 13.6769H55.4895C55.4343 13.6769 55.3815 13.6988 55.3425 13.7378C55.3035 13.7768 55.2816 13.8296 55.2816 13.8848V16.468C55.2816 16.5232 55.3035 16.576 55.3425 16.615C55.3815 16.654 55.4343 16.6759 55.4895 16.6759H60.2695C60.3246 16.6759 60.3774 16.6978 60.4164 16.7367C60.4554 16.7757 60.4773 16.8286 60.4773 16.8837V19.5356C60.4773 19.5907 60.4554 19.6435 60.4164 19.6825C60.3774 19.7215 60.3246 19.7434 60.2695 19.7434H51.7486C51.6935 19.7434 51.6406 19.7215 51.6016 19.6825C51.5627 19.6435 51.5408 19.5907 51.5408 19.5356V5.4034C51.5408 5.34828 51.5627 5.29542 51.6016 5.25644C51.6406 5.21747 51.6935 5.19557 51.7486 5.19557Z" fill="white"/>
<path d="M78.7659 5.19557H87.1309C87.186 5.19557 87.2389 5.21747 87.2779 5.25644C87.3168 5.29542 87.3387 5.34828 87.3387 5.4034V8.12592C87.3387 8.18103 87.3168 8.2339 87.2779 8.27287C87.2389 8.31185 87.186 8.33374 87.1309 8.33374H82.5068C82.4517 8.33374 82.3988 8.35564 82.3598 8.39461C82.3209 8.43359 82.299 8.48645 82.299 8.54157V10.73C82.299 10.7851 82.3209 10.838 82.3598 10.8769C82.3988 10.9159 82.4517 10.9378 82.5068 10.9378H85.7593C85.8144 10.9378 85.8673 10.9597 85.9062 10.9987C85.9452 11.0376 85.9671 11.0905 85.9671 11.1456V13.4691C85.9671 13.5242 85.9452 13.5771 85.9062 13.6161C85.8673 13.655 85.8144 13.6769 85.7593 13.6769H82.5068C82.4517 13.6769 82.3988 13.6988 82.3598 13.7378C82.3209 13.7768 82.299 13.8296 82.299 13.8848V16.468C82.299 16.5232 82.3209 16.576 82.3598 16.615C82.3988 16.654 82.4517 16.6759 82.5068 16.6759H87.2868C87.3419 16.6759 87.3948 16.6978 87.4337 16.7367C87.4727 16.7757 87.4946 16.8286 87.4946 16.8837V19.5356C87.4946 19.5907 87.4727 19.6435 87.4337 19.6825C87.3948 19.7215 87.3419 19.7434 87.2868 19.7434H78.7659C78.7108 19.7434 78.658 19.7215 78.619 19.6825C78.58 19.6435 78.5581 19.5907 78.5581 19.5356V5.4034C78.5581 5.34828 78.58 5.29542 78.619 5.25644C78.658 5.21747 78.7108 5.19557 78.7659 5.19557Z" fill="white"/>
<path d="M41.5651 5.19557H44.7532C44.8083 5.19557 44.8612 5.21747 44.9001 5.25644C44.9391 5.29542 44.961 5.34828 44.961 5.4034V16.3537C44.961 16.4089 44.9829 16.4617 45.0219 16.5007C45.0608 16.5397 45.1137 16.5616 45.1688 16.5616H49.4625C49.5176 16.5616 49.5705 16.5835 49.6095 16.6224C49.6484 16.6614 49.6703 16.7143 49.6703 16.7694V19.5356C49.6703 19.5907 49.6484 19.6435 49.6095 19.6825C49.5705 19.7215 49.5176 19.7434 49.4625 19.7434H41.5651C41.51 19.7434 41.4571 19.7215 41.4182 19.6825C41.3792 19.6435 41.3573 19.5907 41.3573 19.5356V5.4034C41.3573 5.34828 41.3792 5.29542 41.4182 5.25644C41.4571 5.21747 41.51 5.19557 41.5651 5.19557Z" fill="white"/>
<path d="M30.7582 5.19557H39.1232C39.1783 5.19557 39.2312 5.21747 39.2702 5.25644C39.3092 5.29542 39.3311 5.34828 39.3311 5.4034V8.12592C39.3311 8.18103 39.3092 8.2339 39.2702 8.27287C39.2312 8.31185 39.1783 8.33374 39.1232 8.33374H34.4991C34.444 8.33374 34.3911 8.35564 34.3522 8.39461C34.3132 8.43359 34.2913 8.48645 34.2913 8.54157V10.73C34.2913 10.7851 34.3132 10.838 34.3522 10.8769C34.3911 10.9159 34.444 10.9378 34.4991 10.9378H37.7516C37.8067 10.9378 37.8596 10.9597 37.8985 10.9987C37.9375 11.0376 37.9594 11.0905 37.9594 11.1456V13.4691C37.9594 13.5242 37.9375 13.5771 37.8985 13.6161C37.8596 13.655 37.8067 13.6769 37.7516 13.6769H34.4991C34.444 13.6769 34.3911 13.6988 34.3522 13.7378C34.3132 13.7768 34.2913 13.8296 34.2913 13.8848V16.468C34.2913 16.5232 34.3132 16.576 34.3522 16.615C34.3911 16.654 34.444 16.6759 34.4991 16.6759H39.2791C39.3342 16.6759 39.3871 16.6978 39.4261 16.7367C39.465 16.7757 39.4869 16.8286 39.4869 16.8837V19.5356C39.4869 19.5907 39.465 19.6435 39.4261 19.6825C39.3871 19.7215 39.3342 19.7434 39.2791 19.7434H30.7582C30.7031 19.7434 30.6503 19.7215 30.6113 19.6825C30.5723 19.6435 30.5504 19.5907 30.5504 19.5356V5.4034C30.5504 5.34828 30.5723 5.29542 30.6113 5.25644C30.6503 5.21747 30.7031 5.19557 30.7582 5.19557Z" fill="white"/>
</svg>
