<svg width="30" height="150" viewBox="0 0 30 150" fill="none" xmlns="http://www.w3.org/2000/svg">
<path d="M7.565 136.968L10.6374 142.508C10.7482 142.708 10.9081 142.874 11.1008 142.989C11.2935 143.105 11.5121 143.165 11.7347 143.165H17.8548C18.0773 143.165 18.296 143.105 18.4887 142.989C18.6814 142.874 18.8412 142.708 18.9521 142.508L25.0796 131.469C25.1912 131.27 25.3514 131.104 25.5442 130.989C25.737 130.874 25.9556 130.814 26.1781 130.814C26.4006 130.814 26.6192 130.874 26.812 130.989C27.0048 131.104 27.165 131.27 27.2766 131.469L29.2493 135.047C29.4673 135.44 29.5821 135.885 29.5821 136.338C29.5821 136.792 29.4673 137.237 29.2493 137.63L23.1143 148.687C22.8923 149.087 22.5721 149.419 22.1863 149.65C21.8005 149.88 21.3627 150.001 20.9173 150H8.67461C8.22959 150.001 7.79226 149.88 7.4066 149.65C7.02093 149.42 6.70052 149.088 6.47758 148.689L0.3328 137.622C0.114745 137.229 0 136.783 0 136.329C0 135.876 0.114745 135.43 0.3328 135.037L6.47758 123.97C6.70071 123.571 7.02117 123.24 7.40679 123.01C7.79241 122.78 8.22964 122.659 8.67461 122.659H13.3152C13.7596 122.659 14.1963 122.779 14.5814 123.009C14.9666 123.238 15.2868 123.569 15.5098 123.967L17.8622 128.196C18.0814 128.589 18.1969 129.035 18.1969 129.489C18.1969 129.943 18.0814 130.389 17.8622 130.782L15.8895 134.359C15.7783 134.559 15.6183 134.725 15.4257 134.84C15.2331 134.955 15.0146 135.015 14.7923 135.015C14.5699 135.015 14.3515 134.955 14.1588 134.84C13.9662 134.725 13.8063 134.559 13.695 134.359L11.2292 129.901C11.2085 129.859 11.1771 129.824 11.1383 129.799C11.0996 129.774 11.0551 129.761 11.0097 129.761C10.9643 129.761 10.9198 129.774 10.8811 129.799C10.8424 129.824 10.811 129.859 10.7903 129.901L7.565 135.691C7.45868 135.886 7.40281 136.106 7.40281 136.329C7.40281 136.553 7.45868 136.773 7.565 136.968Z" fill="#333333"/>
<path d="M5.91797 6.37276C5.91797 3.2196 7.36786 1.33385 9.59202 0.286202C9.61174 0.286202 9.6364 0.265759 9.66599 0.252983C9.69335 0.24072 9.72277 0.234163 9.75258 0.233691C9.78239 0.233218 9.81199 0.238832 9.8397 0.250223C9.86741 0.261614 9.89268 0.278549 9.91407 0.300067C9.93546 0.321585 9.95254 0.347264 9.96435 0.375629L11.0962 3.05607C11.1173 3.11474 11.117 3.17943 11.0952 3.23784C11.0733 3.29625 11.0316 3.34431 10.9778 3.37292C9.8238 3.88396 9.33557 4.72464 9.33557 5.80295C9.33557 6.9758 9.76462 7.4843 10.5685 7.4843C12.9036 7.4843 13.0935 1.90735e-06 18.5503 1.90735e-06C21.815 1.90735e-06 23.6742 2.36872 23.6742 6.03293C23.6742 8.85902 22.143 11.4219 19.6599 12.2396L19.6106 12.2549C19.5501 12.2721 19.4856 12.2647 19.4302 12.2343C19.3747 12.204 19.3326 12.1528 19.3122 12.0914V12.0582L18.3752 9.11454C18.3561 9.05375 18.3597 8.98774 18.3853 8.92955C18.4108 8.87137 18.4565 8.82522 18.5133 8.80023C18.5305 8.80023 18.5453 8.78491 18.5601 8.7798C19.075 8.55634 19.5161 8.18251 19.8296 7.70386C20.143 7.22521 20.3154 6.66241 20.3257 6.08403C20.3257 4.78597 19.9213 4.32857 19.0928 4.32857C16.2078 4.32857 16.2324 12.0658 10.8471 12.0658C8.11007 12.0735 5.91797 9.8581 5.91797 6.37276Z" fill="#333333"/>
<path d="M6.16455 25.3044L6.16455 13.5504C6.16455 13.4826 6.19053 13.4176 6.23677 13.3697C6.28302 13.3218 6.34573 13.2948 6.41113 13.2948H9.66599C9.73139 13.2948 9.79411 13.3218 9.84035 13.3697C9.88659 13.4176 9.91257 13.4826 9.91257 13.5504V16.8901C9.91257 16.9578 9.93855 17.0228 9.98479 17.0707C10.031 17.1187 10.0938 17.1456 10.1591 17.1456H23.1786C23.244 17.1456 23.3067 17.1725 23.3529 17.2204C23.3992 17.2683 23.4252 17.3333 23.4252 17.4011V21.4716C23.4252 21.5394 23.3992 21.6043 23.3529 21.6523C23.3067 21.7002 23.244 21.7271 23.1786 21.7271H10.1444C10.079 21.7271 10.0162 21.754 9.97 21.802C9.92375 21.8499 9.89778 21.9149 9.89778 21.9826V25.3044C9.89778 25.3722 9.8718 25.4372 9.82555 25.4851C9.77931 25.533 9.71659 25.56 9.6512 25.56H6.41113C6.34573 25.56 6.28302 25.533 6.23677 25.4851C6.19053 25.4372 6.16455 25.3722 6.16455 25.3044Z" fill="#333333"/>
<path d="M6.16455 40.1249V37.1812C6.16529 37.1387 6.17628 37.097 6.19652 37.0599C6.21676 37.0229 6.24561 36.9917 6.28044 36.9691L14.716 31.6364C14.722 31.6322 14.727 31.6265 14.7305 31.6198C14.7339 31.6131 14.7357 31.6056 14.7357 31.598C14.7351 31.5915 14.7323 31.5853 14.7278 31.5806C14.7233 31.5759 14.7174 31.5731 14.711 31.5725H6.41113C6.34573 31.5725 6.28302 31.5456 6.23677 31.4977C6.19053 31.4497 6.16455 31.3847 6.16455 31.317V27.8597C6.16455 27.792 6.19053 27.727 6.23677 27.6791C6.28302 27.6311 6.34573 27.6042 6.41113 27.6042H23.1786C23.244 27.6042 23.3067 27.6311 23.3529 27.6791C23.3992 27.727 23.4252 27.792 23.4252 27.8597V30.5964C23.4244 30.6389 23.4134 30.6806 23.3932 30.7177C23.373 30.7547 23.3441 30.7859 23.3093 30.8085L14.4694 36.3406C14.4633 36.3448 14.4583 36.3505 14.4549 36.3572C14.4514 36.3638 14.4496 36.3713 14.4496 36.3789C14.4496 36.3857 14.4522 36.3922 14.4569 36.397C14.4615 36.4017 14.4678 36.4044 14.4743 36.4044H23.1786C23.244 36.4044 23.3067 36.4314 23.3529 36.4793C23.3992 36.5272 23.4252 36.5922 23.4252 36.66V40.1249C23.4252 40.1926 23.3992 40.2576 23.3529 40.3055C23.3067 40.3535 23.244 40.3804 23.1786 40.3804H6.41113C6.34573 40.3804 6.28302 40.3535 6.23677 40.3055C6.19053 40.2576 6.16455 40.1926 6.16455 40.1249Z" fill="#333333"/>
<path d="M6.16455 60.1758V56.2228C6.16455 56.1551 6.19053 56.0901 6.23677 56.0421C6.28302 55.9942 6.34573 55.9673 6.41113 55.9673H23.1786C23.244 55.9673 23.3067 55.9942 23.3529 56.0421C23.3992 56.0901 23.4252 56.1551 23.4252 56.2228V59.9024C23.4252 59.9701 23.3992 60.0351 23.3529 60.083C23.3067 60.131 23.244 60.1579 23.1786 60.1579H14.4743C14.4678 60.1579 14.4615 60.1606 14.4569 60.1654C14.4522 60.1702 14.4496 60.1767 14.4496 60.1834C14.4498 60.1913 14.4517 60.1991 14.4551 60.2062C14.4585 60.2132 14.4634 60.2194 14.4694 60.2243L18.8264 63.8885C19.0235 64.0586 19.149 64.3015 19.1761 64.5658C19.2033 64.83 19.13 65.0949 18.9719 65.3041C18.9285 65.3602 18.8798 65.4115 18.8264 65.4574L14.4694 69.1165C14.4631 69.1211 14.458 69.1273 14.4546 69.1344C14.4511 69.1416 14.4494 69.1494 14.4496 69.1574C14.4496 69.1642 14.4522 69.1707 14.4569 69.1755C14.4615 69.1803 14.4678 69.183 14.4743 69.183H23.1786C23.244 69.183 23.3067 69.2099 23.3529 69.2578C23.3992 69.3057 23.4252 69.3707 23.4252 69.4385V73.0874C23.4252 73.1551 23.3992 73.2201 23.3529 73.2681C23.3067 73.316 23.244 73.3429 23.1786 73.3429H6.41113C6.34573 73.3429 6.28302 73.316 6.23677 73.2681C6.19053 73.2201 6.16455 73.1551 6.16455 73.0874V69.1319C6.16467 69.0856 6.17689 69.0403 6.1999 69.0007C6.22292 68.9611 6.25586 68.9287 6.29524 68.907L13.8085 64.8672C13.8651 64.8357 13.9076 64.7825 13.9269 64.7191C13.9463 64.6556 13.941 64.5868 13.9121 64.5273C13.8889 64.4815 13.8528 64.4441 13.8085 64.42L6.2977 60.4006C6.25787 60.3792 6.22442 60.347 6.20096 60.3074C6.17749 60.2678 6.16491 60.2223 6.16455 60.1758Z" fill="#333333"/>
<path d="M6.16455 86.3746L6.16455 76.0898C6.16455 76.022 6.19053 75.957 6.23677 75.9091C6.28302 75.8612 6.34573 75.8343 6.41113 75.8343H9.64133C9.70673 75.8343 9.76945 75.8612 9.81569 75.9091C9.86193 75.957 9.88791 76.022 9.88791 76.0898V81.7752C9.88791 81.8429 9.91389 81.9079 9.96013 81.9559C10.0064 82.0038 10.0691 82.0307 10.1345 82.0307H12.731C12.7964 82.0307 12.8591 82.0038 12.9053 81.9559C12.9516 81.9079 12.9776 81.8429 12.9776 81.7752V77.7762C12.9776 77.7085 13.0035 77.6435 13.0498 77.5956C13.096 77.5476 13.1587 77.5207 13.2241 77.5207H15.9809C16.0463 77.5207 16.109 77.5476 16.1553 77.5956C16.2015 77.6435 16.2275 77.7085 16.2275 77.7762V81.7752C16.2275 81.8429 16.2535 81.9079 16.2997 81.9559C16.346 82.0038 16.4087 82.0307 16.4741 82.0307H19.5391C19.6045 82.0307 19.6672 82.0038 19.7134 81.9559C19.7597 81.9079 19.7856 81.8429 19.7856 81.7752V75.8981C19.7856 75.8304 19.8116 75.7654 19.8579 75.7175C19.9041 75.6695 19.9668 75.6426 20.0322 75.6426H23.1786C23.244 75.6426 23.3067 75.6695 23.3529 75.7175C23.3992 75.7654 23.4252 75.8304 23.4252 75.8981V86.3746C23.4252 86.4424 23.3992 86.5074 23.3529 86.5553C23.3067 86.6032 23.244 86.6301 23.1786 86.6301H6.41113C6.34573 86.6301 6.28302 86.6032 6.23677 86.5553C6.19053 86.5074 6.16455 86.4424 6.16455 86.3746Z" fill="#333333"/>
<path d="M6.16455 53.1565L6.16455 42.8717C6.16455 42.8039 6.19053 42.7389 6.23677 42.691C6.28302 42.6431 6.34573 42.6162 6.41113 42.6162H9.64133C9.70673 42.6162 9.76945 42.6431 9.81569 42.691C9.86193 42.7389 9.88791 42.8039 9.88791 42.8717V48.5571C9.88791 48.6249 9.91389 48.6899 9.96013 48.7378C10.0064 48.7857 10.0691 48.8126 10.1345 48.8126H12.731C12.7964 48.8126 12.8591 48.7857 12.9053 48.7378C12.9516 48.6899 12.9776 48.6249 12.9776 48.5571V44.5582C12.9776 44.4904 13.0035 44.4254 13.0498 44.3775C13.096 44.3296 13.1587 44.3026 13.2241 44.3026H15.9809C16.0463 44.3026 16.109 44.3296 16.1553 44.3775C16.2015 44.4254 16.2275 44.4904 16.2275 44.5582V48.5571C16.2275 48.6249 16.2535 48.6899 16.2997 48.7378C16.346 48.7857 16.4087 48.8126 16.4741 48.8126H19.5391C19.6045 48.8126 19.6672 48.7857 19.7134 48.7378C19.7597 48.6899 19.7856 48.6249 19.7856 48.5571V42.6801C19.7856 42.6123 19.8116 42.5473 19.8579 42.4994C19.9041 42.4515 19.9668 42.4245 20.0322 42.4245H23.1786C23.244 42.4245 23.3067 42.4515 23.3529 42.4994C23.3992 42.5473 23.4252 42.6123 23.4252 42.6801V53.1565C23.4252 53.2243 23.3992 53.2893 23.3529 53.3372C23.3067 53.3851 23.244 53.412 23.1786 53.412H6.41113C6.34573 53.412 6.28302 53.3851 6.23677 53.3372C6.19053 53.2893 6.16455 53.2243 6.16455 53.1565Z" fill="#333333"/>
<path d="M6.16455 98.8954V94.9756C6.16455 94.9079 6.19053 94.8429 6.23677 94.7949C6.28302 94.747 6.34573 94.7201 6.41113 94.7201H19.4034C19.4688 94.7201 19.5316 94.6932 19.5778 94.6453C19.624 94.5973 19.65 94.5323 19.65 94.4646V89.1855C19.65 89.1177 19.676 89.0527 19.7222 89.0048C19.7685 88.9569 19.8312 88.9299 19.8966 88.9299H23.1786C23.244 88.9299 23.3067 88.9569 23.3529 89.0048C23.3992 89.0527 23.4252 89.1177 23.4252 89.1855V98.8954C23.4252 98.9631 23.3992 99.0281 23.3529 99.076C23.3067 99.124 23.244 99.1509 23.1786 99.1509H6.41113C6.34573 99.1509 6.28302 99.124 6.23677 99.076C6.19053 99.0281 6.16455 98.9631 6.16455 98.8954Z" fill="#333333"/>
<path d="M6.16455 112.182L6.16455 101.898C6.16455 101.83 6.19053 101.765 6.23677 101.717C6.28302 101.669 6.34573 101.642 6.41113 101.642H9.64133C9.70673 101.642 9.76945 101.669 9.81569 101.717C9.86193 101.765 9.88791 101.83 9.88791 101.898V107.583C9.88791 107.651 9.91389 107.716 9.96013 107.764C10.0064 107.812 10.0691 107.839 10.1345 107.839H12.731C12.7964 107.839 12.8591 107.812 12.9053 107.764C12.9516 107.716 12.9776 107.651 12.9776 107.583V103.584C12.9776 103.516 13.0035 103.451 13.0498 103.403C13.096 103.356 13.1587 103.329 13.2241 103.329H15.9809C16.0463 103.329 16.109 103.356 16.1553 103.403C16.2015 103.451 16.2275 103.516 16.2275 103.584V107.583C16.2275 107.651 16.2535 107.716 16.2997 107.764C16.346 107.812 16.4087 107.839 16.4741 107.839H19.5391C19.6045 107.839 19.6672 107.812 19.7134 107.764C19.7597 107.716 19.7856 107.651 19.7856 107.583V101.706C19.7856 101.638 19.8116 101.573 19.8579 101.525C19.9041 101.477 19.9668 101.451 20.0322 101.451H23.1786C23.244 101.451 23.3067 101.477 23.3529 101.525C23.3992 101.573 23.4252 101.638 23.4252 101.706V112.182C23.4252 112.25 23.3992 112.315 23.3529 112.363C23.3067 112.411 23.244 112.438 23.1786 112.438H6.41113C6.34573 112.438 6.28302 112.411 6.23677 112.363C6.19053 112.315 6.16455 112.25 6.16455 112.182Z" fill="#333333"/>
</svg>
