<svg width="36" height="28" viewBox="0 0 36 28" fill="none" xmlns="http://www.w3.org/2000/svg">
<path d="M23.3526 3.81948L20.1935 6.99643C18.9827 6.67153 17.7077 6.67118 16.4967 6.99543C15.2857 7.31967 14.1815 7.95708 13.295 8.84353C12.4086 9.72998 11.7712 10.8342 11.4469 12.0452C11.1227 13.2562 11.123 14.5312 11.4479 15.742L6.52187 20.6502C4.16593 18.8654 2.20264 16.5451 0.846191 13.8858C2.88251 9.89287 6.22378 6.71696 10.3148 4.88574C14.4058 3.05452 19.0003 2.67826 23.3347 3.81948H23.3526ZM30.1348 7.12137C32.5086 8.90617 34.4719 11.2264 35.8462 13.8858C33.8085 17.886 30.4614 21.0671 26.3628 22.8989C22.2641 24.7306 17.6615 25.1023 13.322 23.9521L16.4811 20.7751C17.6919 21.1 18.9669 21.1004 20.1778 20.7761C21.3888 20.4519 22.4931 19.8145 23.3795 18.928C24.266 18.0416 24.9034 16.9373 25.2276 15.7263C25.5519 14.5154 25.5515 13.2404 25.2266 12.0296L30.1527 7.12137H30.1348ZM29.6886 0L32.223 2.53442L6.98592 27.7715L4.45149 25.2371L29.6886 0Z" fill="#E5E5E5"/>
</svg>
