<svg width="55" height="35" viewBox="0 0 55 35" fill="none" xmlns="http://www.w3.org/2000/svg">
<path d="M0.097168 17.4313C2.67364 12.3607 6.59727 8.10353 11.4344 5.13025C16.2716 2.15697 21.8339 0.583374 27.5067 0.583374C33.1795 0.583374 38.7418 2.15697 43.579 5.13025C48.4162 8.10353 52.3398 12.3607 54.9162 17.4313C52.3398 22.502 48.4162 26.7592 43.579 29.7324C38.7418 32.7057 33.1795 34.2793 27.5067 34.2793C21.8339 34.2793 16.2716 32.7057 11.4344 29.7324C6.59727 26.7592 2.67364 22.502 0.097168 17.4313ZM27.5067 28.6558C30.4738 28.6558 33.3194 27.4733 35.4175 25.3683C37.5156 23.2633 38.6943 20.4083 38.6943 17.4313C38.6943 14.4544 37.5156 11.5994 35.4175 9.49443C33.3194 7.38943 30.4738 6.20685 27.5067 6.20685C24.5396 6.20685 21.694 7.38943 19.5959 9.49443C17.4978 11.5994 16.3191 14.4544 16.3191 17.4313C16.3191 20.4083 17.4978 23.2633 19.5959 25.3683C21.694 27.4733 24.5396 28.6558 27.5067 28.6558ZM27.5067 23.0436C26.0231 23.0436 24.6003 22.4523 23.5513 21.3998C22.5023 20.3473 21.9129 18.9198 21.9129 17.4313C21.9129 15.9429 22.5023 14.5154 23.5513 13.4629C24.6003 12.4104 26.0231 11.8191 27.5067 11.8191C28.9903 11.8191 30.4131 12.4104 31.4621 13.4629C32.5112 14.5154 33.1005 15.9429 33.1005 17.4313C33.1005 18.9198 32.5112 20.3473 31.4621 21.3998C30.4131 22.4523 28.9903 23.0436 27.5067 23.0436Z" fill="#FFB100"/>
</svg>
