<svg width="50" height="49" viewBox="0 0 50 49" fill="none" xmlns="http://www.w3.org/2000/svg">
<rect x="1" y="1" width="48" height="47" rx="23.5" fill="white" stroke="#333333" stroke-width="2"/>
<path d="M28 22V33C28 33.5304 27.7893 34.0391 27.4142 34.4142C27.0391 34.7893 26.5304 35 26 35H24C23.4696 35 22.9609 34.7893 22.5858 34.4142C22.2107 34.0391 22 33.5304 22 33V22L20 20V18H30V20L28 22ZM24 23V24C24 24.2652 24.1054 24.5196 24.2929 24.7071C24.4804 24.8946 24.7348 25 25 25C25.2652 25 25.5196 24.8946 25.7071 24.7071C25.8946 24.5196 26 24.2652 26 24V23C26 22.7348 25.8946 22.4804 25.7071 22.2929C25.5196 22.1054 25.2652 22 25 22C24.7348 22 24.4804 22.1054 24.2929 22.2929C24.1054 22.4804 24 22.7348 24 23ZM20 15H30V17H20V15Z" fill="#333333"/>
</svg>
