<svg width="1064" height="1080" viewBox="0 0 1064 1080" fill="none" xmlns="http://www.w3.org/2000/svg">
<path d="M669.673 172.219L384.997 330.294C374.721 335.996 366.188 344.22 360.262 354.135C354.336 364.049 351.227 375.3 351.25 386.749V701.629C351.227 713.078 354.336 724.329 360.262 734.243C366.188 744.158 374.721 752.382 384.997 758.084L952.249 1073.35C962.498 1079.09 971.006 1087.33 976.92 1097.25C982.834 1107.17 985.946 1118.42 985.946 1129.86C985.946 1141.31 982.834 1152.56 976.92 1162.48C971.006 1172.4 962.498 1180.64 952.249 1186.38L768.417 1287.87C748.223 1299.09 725.336 1305 702.041 1305C678.746 1305 655.858 1299.09 635.664 1287.87L67.4929 972.234C46.9316 960.809 29.8603 944.337 18.008 924.487C6.15579 904.636 -0.0564906 882.113 0.000387082 859.196V229.309C-0.0296622 206.412 6.17972 183.912 18.0042 164.07C29.8288 144.227 46.8517 127.742 67.3616 116.271L636.058 -199.877C656.276 -211.096 679.185 -217 702.5 -217C725.816 -217 748.724 -211.096 768.942 -199.877L1337.64 116.271C1358.14 127.752 1375.16 144.239 1386.98 164.079C1398.8 183.92 1405.02 206.415 1405 229.309V468.07C1405.02 490.932 1398.82 513.398 1387.02 533.215C1375.22 553.032 1358.24 569.504 1337.77 580.98L1120.45 702.01C1100.26 713.291 1077.34 719.23 1054.01 719.23C1030.68 719.23 1007.77 713.291 987.571 702.01L803.739 600.517C793.487 594.792 784.975 586.561 779.057 576.652C773.139 566.742 770.024 555.503 770.024 544.062C770.024 532.621 773.139 521.382 779.057 511.473C784.975 501.563 793.487 493.333 803.739 487.607L1032.87 360.741C1035.02 359.677 1036.83 358.059 1038.09 356.067C1039.35 354.075 1040.02 351.785 1040.02 349.45C1040.02 347.116 1039.35 344.826 1038.09 342.834C1036.83 340.842 1035.02 339.224 1032.87 338.159L735.327 172.219C725.313 166.749 714.004 163.875 702.5 163.875C690.996 163.875 679.688 166.749 669.673 172.219Z" fill="#FFB100" fill-opacity="0.85"/>
</svg>
